<svg xmlns="http://www.w3.org/2000/svg" viewBox="0 0 308.25 105.68"><defs><style>.cls-1{font-size:63.58px;font-family:Bender, Bender;}.cls-1,.cls-4{fill:#f16822;}.cls-2{letter-spacing:-0.07em;}.cls-3{letter-spacing:0em;}.cls-5{fill:#2fbdbd;}.cls-6,.cls-7{fill:#fff;}.cls-7{font-size:23.06px;font-family:Bender-Bold, Bender;font-weight:700;}</style></defs><title>Asset 2</title><g id="Layer_2" data-name="Layer 2"><g id="Layer_1-2" data-name="Layer 1"><text class="cls-1" transform="translate(83.84 85.96)">SU<tspan class="cls-2" x="74.32" y="0">A</tspan><tspan class="cls-3" x="106.62" y="0">VE</tspan></text><path class="cls-4" d="M17.08,38.54c10.24.37,7.76-12.64,8.22-21.21,9.25,1.4,21.4-.12,31.12.85.08,9.43-.9,21,8.75,20.93-.31-4.93.25-11.9-.84-16.69a7.3,7.3,0,0,0-2.62-3.73l6.22-3.21-7.62,1c-.92-9-6.2-15.06-15.21-16.14-9.19-1.11-22.7.82-32.84,0,.06.87.19,1.7.32,2.5L4.53.35l3.65,10L0,7.69l10,7.68,6.8,18.43c.08,1.66.19,3.26.25,4.74"/><path class="cls-5" d="M66.9,45.66c-.25-.33-5.46-1.41-11.39-1.59S47.75,45.22,43,45.22s-6.58-1.34-12.51-1.16-11.13,1.27-11.38,1.59A18.48,18.48,0,0,0,18.9,51c.25.61.61.4.72.76s1.48,7.16,3.25,8.42,2.28,1.59,6.65,1.59,7.16-1.27,8-2.39a19.62,19.62,0,0,0,3.36-7c.4-1.37.83-3.51,1.19-3.65a2.55,2.55,0,0,1,1.88,0c.36.14.79,2.28,1.19,3.65a19.63,19.63,0,0,0,3.36,7c.83,1.12,3.62,2.39,8,2.39s4.88-.33,6.65-1.59,3.14-8.06,3.25-8.42.47-.14.72-.76a18.48,18.48,0,0,0-.22-5.35M39.21,53.53a13.7,13.7,0,0,1-3,5.31c-1.23,1.16-4.08,1.63-6.07,1.63s-4.81-.18-5.85-1-1.77-2.71-2.17-4.41a14.35,14.35,0,0,1,0-6.22C22.59,46.56,27.94,46,30.9,46c6.21,0,8.32,1.37,8.86,2.35s.14,3.11-.54,5.17m24.72,1.52c-.4,1.7-1.12,3.58-2.17,4.41s-3.87,1-5.86,1-4.84-.47-6.07-1.63a13.71,13.71,0,0,1-3-5.31c-.69-2.06-1.08-4.19-.54-5.17S48.91,46,55.12,46c3,0,8.31.54,8.82,2.82a14.38,14.38,0,0,1,0,6.22"/><polygon class="cls-5" points="40.94 96.41 39.59 99.93 42.12 98.3 42.48 97.39 40.94 96.41"/><polygon class="cls-5" points="34.46 92.26 30.6 102.32 30.6 105.68 31.13 105.34 35.82 93.13 34.46 92.26"/><polygon class="cls-5" points="38.64 94.94 35.8 102.35 38.52 100.61 40.3 96 38.64 94.94"/><polygon class="cls-5" points="32.28 90.87 30.6 95.25 30.6 100.23 33.82 91.85 32.28 90.87"/><polygon class="cls-5" points="36.46 93.55 32.2 104.66 34.73 103.03 38 94.53 36.46 93.55"/><polygon class="cls-5" points="30.6 89.79 30.6 93.16 31.64 90.46 30.6 89.79"/><polygon class="cls-5" points="43.19 97.62 43.12 97.8 44.71 98.82 45.82 95.94 43.19 97.62"/><polygon class="cls-5" points="55.42 89.79 54.28 90.52 49.83 102.1 51.37 103.08 55.42 92.53 55.42 89.79"/><polygon class="cls-5" points="55.42 105.68 55.42 101.12 54.01 104.78 55.42 105.68"/><polygon class="cls-5" points="55.42 94.62 52.01 103.49 53.37 104.37 55.42 99.03 55.42 94.62"/><polygon class="cls-5" points="46.88 95.26 45.35 99.24 46.89 100.22 49.42 93.63 46.88 95.26"/><polygon class="cls-5" points="50.48 92.95 47.53 100.63 49.19 101.69 53.21 91.2 50.48 92.95"/><polygon class="cls-6" points="31.64 90.46 30.6 93.16 30.6 95.25 32.28 90.87 31.64 90.46"/><polygon class="cls-6" points="33.82 91.85 30.6 100.23 30.6 102.32 34.46 92.26 33.82 91.85"/><polygon class="cls-6" points="35.82 93.13 31.13 105.34 32.2 104.66 36.46 93.55 35.82 93.13"/><polygon class="cls-6" points="38 94.53 34.73 103.03 35.8 102.35 38.64 94.94 38 94.53"/><polygon class="cls-6" points="40.3 96 38.52 100.61 39.59 99.93 40.94 96.41 40.3 96"/><polygon class="cls-6" points="42.48 97.39 42.12 98.3 43.01 97.73 42.48 97.39"/><polygon class="cls-6" points="43.01 97.73 43.12 97.8 43.19 97.62 43.01 97.73"/><polygon class="cls-6" points="45.82 95.94 44.71 98.82 45.35 99.23 46.88 95.26 45.82 95.94"/><polygon class="cls-6" points="49.42 93.63 46.89 100.22 47.53 100.63 50.48 92.95 49.42 93.63"/><polygon class="cls-6" points="53.21 91.2 49.19 101.69 49.83 102.1 54.28 90.52 53.21 91.2"/><polygon class="cls-6" points="55.42 92.53 51.37 103.08 52.01 103.49 55.42 94.62 55.42 92.53"/><polygon class="cls-6" points="55.42 101.12 55.42 99.03 53.37 104.37 54.01 104.78 55.42 101.12"/><path class="cls-4" d="M43.35,71c-2.8-2.7-7,1.16-7,1.16-4.73,3.67-8.11,1.45-8.11,1.45C32.05,78.42,43.35,71,43.35,71Z"/><path class="cls-4" d="M42.67,71c2.8-2.7,7,1.16,7,1.16,4.73,3.67,8.11,1.45,8.11,1.45C54,78.42,42.67,71,42.67,71Z"/><circle class="cls-5" cx="289.75" cy="48.69" r="18.5"/><text class="cls-7" transform="translate(280.38 55.86)">io</text><circle class="cls-4" cx="266.77" cy="62.64" r="3.61"/></g></g></svg>